# xmcd
#
# Track frame offsets:
# 150
# 12994
# 26865
# 35515
# 51807
# 63306
# 77371
# 89268
# 99709
# 113701
# 126734
# 146586
# 159445
# 174075
#
# Disc length: 2516 seconds
#
#
# Revision: 0
# Processed by: cddbd v1.5.1PL0 Copyright (c) Steve Scherf et al.
# Submitted via: FreeRIP 2.90 
#
DISCID=b309d20e
DTITLE=Vários - Saudades do Sertão 2 CD 1
DYEAR=2005
DGENRE=Country
TTITLE0=Trio Parada Dura - As Andorinhas
TTITLE1=Tião Carreiro and Pardinho - Amargurado
TTITLE2=Tonico and Tinoco - Festa Na Roça
TTITLE3=Gilbeto and Gilmar - Apaixonado Demais
TTITLE4=Milionário and José Rico - O Tropeiro
TTITLE5=Irídio and Irineu - Vem Cá Moreninha
TTITLE6=Abel and Caim - Adeus Por Toda A Vida
TTITLE7=Solevante and Soleny - Quem Ama Sente Saudade
TTITLE8=Teodoro and Sampaio - A Voz Do Povo
TTITLE9=Leo Canhoto and Robertinho - Homem Objeto
TTITLE10=Inezita Barroso - Chitãozinho and Xororó
TTITLE11=Lourenço and Lourival - Lar Feliz
TTITLE12=Cezar and Paulinho - Neto De Carreiro
TTITLE13=Teixeirinha - Coração De Luto
EXTD=
EXTT0=
EXTT1=
EXTT2=
EXTT3=
EXTT4=
EXTT5=
EXTT6=
EXTT7=
EXTT8=
EXTT9=
EXTT10=
EXTT11=
EXTT12=
EXTT13=
PLAYORDER=
